REM MD5 df43bc1cf6387674a7ab8b11ab214263
FILE "PlayStation Kiosk Demo Disc Version 1.19 (USA).bin" BINARY
  TRACK 01 MODE2/2352
    INDEX 01 00:00:00
  TRACK 02 AUDIO
    INDEX 00 44:35:14
    INDEX 01 44:37:14
  TRACK 03 AUDIO
    INDEX 00 47:14:57
    INDEX 01 47:16:57
REM LEADOUT 47:22:53
